<mxfile host="app.diagrams.net" modified="2021-01-18T01:37:35.123Z" agent="5.0 (Windows NT 10.0; Win64; x64) AppleWebKit/537.36 (KHTML, like Gecko) Chrome/84.0.4147.105 Safari/537.36" etag="6cznPOlfJE6ffUB-cLqN" version="14.2.4" type="github">
  <diagram id="grPUzwxYhyK0WoTHSMgn" name="第 1 页">
    <mxGraphModel dx="2479" dy="643" grid="0" gridSize="10" guides="1" tooltips="1" connect="1" arrows="1" fold="1" page="0" pageScale="1" pageWidth="827" pageHeight="1169" math="0" shadow="0">
      <root>
        <mxCell id="0" />
        <mxCell id="1" parent="0" />
        <mxCell id="PUCx9wWwO43e30y1EaRS-30" value="" style="rounded=0;whiteSpace=wrap;html=1;dashed=1;strokeWidth=3;fillColor=#f5f5f5;strokeColor=#666666;fontColor=#333333;" parent="1" vertex="1">
          <mxGeometry x="143" y="527" width="665" height="397" as="geometry" />
        </mxCell>
        <mxCell id="PUCx9wWwO43e30y1EaRS-29" value="" style="rounded=0;whiteSpace=wrap;html=1;dashed=1;strokeWidth=3;fillColor=#f5f5f5;strokeColor=#666666;fontColor=#333333;" parent="1" vertex="1">
          <mxGeometry x="143" y="341" width="665" height="140" as="geometry" />
        </mxCell>
        <mxCell id="PUCx9wWwO43e30y1EaRS-1" value="" style="rounded=0;whiteSpace=wrap;html=1;" parent="1" vertex="1">
          <mxGeometry x="217" y="357" width="566" height="106" as="geometry" />
        </mxCell>
        <mxCell id="PUCx9wWwO43e30y1EaRS-3" value="linux镜像" style="rounded=1;whiteSpace=wrap;html=1;fillColor=#dae8fc;strokeColor=#6c8ebf;" parent="1" vertex="1">
          <mxGeometry x="231" y="380" width="120" height="60" as="geometry" />
        </mxCell>
        <mxCell id="PUCx9wWwO43e30y1EaRS-5" value="mysql镜像" style="rounded=1;whiteSpace=wrap;html=1;fillColor=#d5e8d4;strokeColor=#82b366;" parent="1" vertex="1">
          <mxGeometry x="371" y="380" width="120" height="60" as="geometry" />
        </mxCell>
        <mxCell id="PUCx9wWwO43e30y1EaRS-6" value="tomcat镜像" style="rounded=1;whiteSpace=wrap;html=1;fillColor=#e1d5e7;strokeColor=#9673a6;" parent="1" vertex="1">
          <mxGeometry x="511" y="380" width="120" height="60" as="geometry" />
        </mxCell>
        <mxCell id="PUCx9wWwO43e30y1EaRS-7" value="其他镜像" style="rounded=1;whiteSpace=wrap;html=1;fillColor=#f5f5f5;strokeColor=#666666;fontColor=#333333;" parent="1" vertex="1">
          <mxGeometry x="651" y="380" width="120" height="60" as="geometry" />
        </mxCell>
        <mxCell id="PUCx9wWwO43e30y1EaRS-14" value="" style="rounded=0;whiteSpace=wrap;html=1;" parent="1" vertex="1">
          <mxGeometry x="217" y="547" width="566" height="106" as="geometry" />
        </mxCell>
        <mxCell id="PUCx9wWwO43e30y1EaRS-15" value="linux镜像" style="rounded=1;whiteSpace=wrap;html=1;fillColor=#dae8fc;strokeColor=#6c8ebf;" parent="1" vertex="1">
          <mxGeometry x="231" y="570" width="120" height="60" as="geometry" />
        </mxCell>
        <mxCell id="PUCx9wWwO43e30y1EaRS-16" value="mysql镜像" style="rounded=1;whiteSpace=wrap;html=1;fillColor=#d5e8d4;strokeColor=#82b366;" parent="1" vertex="1">
          <mxGeometry x="371" y="570" width="120" height="60" as="geometry" />
        </mxCell>
        <mxCell id="PUCx9wWwO43e30y1EaRS-17" value="spring-boot镜像" style="rounded=1;whiteSpace=wrap;html=1;fillColor=#ffe6cc;strokeColor=#d79b00;" parent="1" vertex="1">
          <mxGeometry x="511" y="570" width="120" height="60" as="geometry" />
        </mxCell>
        <mxCell id="PUCx9wWwO43e30y1EaRS-18" value="spring-cloud镜像" style="rounded=1;whiteSpace=wrap;html=1;fillColor=#fff2cc;strokeColor=#d6b656;" parent="1" vertex="1">
          <mxGeometry x="651" y="570" width="120" height="60" as="geometry" />
        </mxCell>
        <mxCell id="PUCx9wWwO43e30y1EaRS-20" value="linux容器2" style="whiteSpace=wrap;html=1;aspect=fixed;fillColor=#dae8fc;strokeColor=#6c8ebf;" parent="1" vertex="1">
          <mxGeometry x="251" y="828" width="80" height="80" as="geometry" />
        </mxCell>
        <mxCell id="PUCx9wWwO43e30y1EaRS-21" value="linux容器1" style="whiteSpace=wrap;html=1;aspect=fixed;fillColor=#dae8fc;strokeColor=#6c8ebf;" parent="1" vertex="1">
          <mxGeometry x="251" y="733" width="80" height="80" as="geometry" />
        </mxCell>
        <mxCell id="PUCx9wWwO43e30y1EaRS-22" value="mysql容器1" style="whiteSpace=wrap;html=1;aspect=fixed;fillColor=#d5e8d4;strokeColor=#82b366;" parent="1" vertex="1">
          <mxGeometry x="391" y="733" width="80" height="80" as="geometry" />
        </mxCell>
        <mxCell id="PUCx9wWwO43e30y1EaRS-23" value="spring-boot镜像" style="whiteSpace=wrap;html=1;aspect=fixed;fillColor=#ffe6cc;strokeColor=#d79b00;" parent="1" vertex="1">
          <mxGeometry x="531" y="733" width="80" height="80" as="geometry" />
        </mxCell>
        <mxCell id="PUCx9wWwO43e30y1EaRS-24" value="spring-boot镜像" style="whiteSpace=wrap;html=1;aspect=fixed;fillColor=#fff2cc;strokeColor=#d6b656;" parent="1" vertex="1">
          <mxGeometry x="671" y="733" width="80" height="80" as="geometry" />
        </mxCell>
        <mxCell id="PUCx9wWwO43e30y1EaRS-31" value="远&lt;br style=&quot;font-size: 12px;&quot;&gt;程&lt;br style=&quot;font-size: 12px;&quot;&gt;镜&lt;br style=&quot;font-size: 12px;&quot;&gt;像&lt;br style=&quot;font-size: 12px;&quot;&gt;仓&lt;br style=&quot;font-size: 12px;&quot;&gt;库" style="text;html=1;strokeColor=none;fillColor=none;align=center;verticalAlign=middle;whiteSpace=wrap;rounded=0;dashed=1;fontSize=12;" parent="1" vertex="1">
          <mxGeometry x="181" y="354" width="53" height="109" as="geometry" />
        </mxCell>
        <mxCell id="PUCx9wWwO43e30y1EaRS-33" value="远&lt;br&gt;程&lt;br&gt;服&lt;br&gt;务&lt;br&gt;器" style="text;html=1;strokeColor=none;fillColor=none;align=center;verticalAlign=middle;whiteSpace=wrap;rounded=0;dashed=1;fontSize=15;fontColor=#666666;fontStyle=1" parent="1" vertex="1">
          <mxGeometry x="103" y="357" width="53" height="96" as="geometry" />
        </mxCell>
        <mxCell id="PUCx9wWwO43e30y1EaRS-35" value="本&lt;br&gt;地&lt;br&gt;主&lt;br&gt;机" style="text;html=1;strokeColor=none;fillColor=none;align=center;verticalAlign=middle;whiteSpace=wrap;rounded=0;dashed=1;fontSize=15;fontColor=#666666;fontStyle=1" parent="1" vertex="1">
          <mxGeometry x="103" y="677.5" width="53" height="96" as="geometry" />
        </mxCell>
        <mxCell id="PUCx9wWwO43e30y1EaRS-36" value="本&lt;br&gt;地&lt;br&gt;镜&lt;br&gt;像&lt;br&gt;仓&lt;br&gt;库" style="text;html=1;strokeColor=none;fillColor=none;align=center;verticalAlign=middle;whiteSpace=wrap;rounded=0;dashed=1;fontSize=12;" parent="1" vertex="1">
          <mxGeometry x="181" y="545.5" width="53" height="109" as="geometry" />
        </mxCell>
        <mxCell id="PUCx9wWwO43e30y1EaRS-39" value="容&lt;br&gt;器" style="text;html=1;strokeColor=none;fillColor=none;align=center;verticalAlign=middle;whiteSpace=wrap;rounded=0;dashed=1;fontSize=12;" parent="1" vertex="1">
          <mxGeometry x="181" y="738" width="53" height="109" as="geometry" />
        </mxCell>
        <mxCell id="PUCx9wWwO43e30y1EaRS-41" value="push" style="html=1;shadow=0;dashed=0;align=center;verticalAlign=middle;shape=mxgraph.arrows2.arrow;dy=0.6;dx=40;notch=15;strokeWidth=2;fontSize=13;fontColor=#666666;rotation=-90;fontStyle=1" parent="1" vertex="1">
          <mxGeometry x="604" y="477" width="80" height="54.5" as="geometry" />
        </mxCell>
        <mxCell id="PUCx9wWwO43e30y1EaRS-43" value="pull" style="html=1;shadow=0;dashed=0;align=center;verticalAlign=middle;shape=mxgraph.arrows2.arrow;dy=0.6;dx=40;notch=15;strokeWidth=2;fontSize=13;fontColor=#666666;rotation=90;fontStyle=1" parent="1" vertex="1">
          <mxGeometry x="321" y="477" width="80" height="54.5" as="geometry" />
        </mxCell>
        <mxCell id="PUCx9wWwO43e30y1EaRS-45" value="" style="endArrow=classic;html=1;fontSize=13;fontColor=#666666;entryX=0;entryY=0.5;entryDx=0;entryDy=0;curved=1;exitX=0.5;exitY=1;exitDx=0;exitDy=0;dashed=1;dashPattern=1 1;" parent="1" source="PUCx9wWwO43e30y1EaRS-15" target="PUCx9wWwO43e30y1EaRS-21" edge="1">
          <mxGeometry width="50" height="50" relative="1" as="geometry">
            <mxPoint x="271" y="668" as="sourcePoint" />
            <mxPoint x="321" y="618" as="targetPoint" />
            <Array as="points">
              <mxPoint x="217" y="691" />
            </Array>
          </mxGeometry>
        </mxCell>
        <mxCell id="PUCx9wWwO43e30y1EaRS-47" value="create" style="edgeLabel;html=1;align=center;verticalAlign=middle;resizable=0;points=[];fontSize=13;fontColor=#666666;" parent="PUCx9wWwO43e30y1EaRS-45" vertex="1" connectable="0">
          <mxGeometry x="-0.2747" y="13" relative="1" as="geometry">
            <mxPoint x="-1.46" y="23.26" as="offset" />
          </mxGeometry>
        </mxCell>
        <mxCell id="PUCx9wWwO43e30y1EaRS-46" value="" style="endArrow=classic;html=1;fontSize=13;fontColor=#666666;entryX=0;entryY=0.5;entryDx=0;entryDy=0;curved=1;exitX=0.5;exitY=1;exitDx=0;exitDy=0;dashed=1;dashPattern=1 1;" parent="1" source="PUCx9wWwO43e30y1EaRS-15" target="PUCx9wWwO43e30y1EaRS-20" edge="1">
          <mxGeometry width="50" height="50" relative="1" as="geometry">
            <mxPoint x="301" y="640" as="sourcePoint" />
            <mxPoint x="261" y="783" as="targetPoint" />
            <Array as="points">
              <mxPoint x="227" y="671" />
              <mxPoint x="216" y="779" />
            </Array>
          </mxGeometry>
        </mxCell>
        <mxCell id="PUCx9wWwO43e30y1EaRS-48" value="create" style="edgeLabel;html=1;align=center;verticalAlign=middle;resizable=0;points=[];fontSize=13;fontColor=#666666;" parent="PUCx9wWwO43e30y1EaRS-46" vertex="1" connectable="0">
          <mxGeometry x="0.1496" y="2" relative="1" as="geometry">
            <mxPoint as="offset" />
          </mxGeometry>
        </mxCell>
        <mxCell id="PUCx9wWwO43e30y1EaRS-51" value="" style="endArrow=classic;html=1;fontSize=13;fontColor=#666666;entryX=0;entryY=0.5;entryDx=0;entryDy=0;curved=1;exitX=0.5;exitY=1;exitDx=0;exitDy=0;dashed=1;dashPattern=1 1;" parent="1" edge="1">
          <mxGeometry width="50" height="50" relative="1" as="geometry">
            <mxPoint x="432" y="630.5" as="sourcePoint" />
            <mxPoint x="392" y="773.5" as="targetPoint" />
            <Array as="points">
              <mxPoint x="358" y="691.5" />
            </Array>
          </mxGeometry>
        </mxCell>
        <mxCell id="PUCx9wWwO43e30y1EaRS-52" value="create" style="edgeLabel;html=1;align=center;verticalAlign=middle;resizable=0;points=[];fontSize=13;fontColor=#666666;" parent="PUCx9wWwO43e30y1EaRS-51" vertex="1" connectable="0">
          <mxGeometry x="-0.2747" y="13" relative="1" as="geometry">
            <mxPoint x="-1.46" y="23.26" as="offset" />
          </mxGeometry>
        </mxCell>
        <mxCell id="PUCx9wWwO43e30y1EaRS-53" value="" style="endArrow=classic;html=1;fontSize=13;fontColor=#666666;entryX=0;entryY=0.5;entryDx=0;entryDy=0;curved=1;exitX=0.5;exitY=1;exitDx=0;exitDy=0;dashed=1;dashPattern=1 1;" parent="1" edge="1">
          <mxGeometry width="50" height="50" relative="1" as="geometry">
            <mxPoint x="291" y="630" as="sourcePoint" />
            <mxPoint x="251" y="773" as="targetPoint" />
            <Array as="points">
              <mxPoint x="217" y="691" />
            </Array>
          </mxGeometry>
        </mxCell>
        <mxCell id="PUCx9wWwO43e30y1EaRS-54" value="create" style="edgeLabel;html=1;align=center;verticalAlign=middle;resizable=0;points=[];fontSize=13;fontColor=#666666;" parent="PUCx9wWwO43e30y1EaRS-53" vertex="1" connectable="0">
          <mxGeometry x="-0.2747" y="13" relative="1" as="geometry">
            <mxPoint x="-1.46" y="23.26" as="offset" />
          </mxGeometry>
        </mxCell>
        <mxCell id="PUCx9wWwO43e30y1EaRS-55" value="" style="endArrow=classic;html=1;fontSize=13;fontColor=#666666;entryX=0;entryY=0.5;entryDx=0;entryDy=0;curved=1;exitX=0.5;exitY=1;exitDx=0;exitDy=0;dashed=1;dashPattern=1 1;" parent="1" edge="1">
          <mxGeometry width="50" height="50" relative="1" as="geometry">
            <mxPoint x="571" y="630.5" as="sourcePoint" />
            <mxPoint x="531" y="773.5" as="targetPoint" />
            <Array as="points">
              <mxPoint x="497" y="691.5" />
            </Array>
          </mxGeometry>
        </mxCell>
        <mxCell id="PUCx9wWwO43e30y1EaRS-56" value="create" style="edgeLabel;html=1;align=center;verticalAlign=middle;resizable=0;points=[];fontSize=13;fontColor=#666666;" parent="PUCx9wWwO43e30y1EaRS-55" vertex="1" connectable="0">
          <mxGeometry x="-0.2747" y="13" relative="1" as="geometry">
            <mxPoint x="-1.46" y="23.26" as="offset" />
          </mxGeometry>
        </mxCell>
        <mxCell id="PUCx9wWwO43e30y1EaRS-57" value="" style="endArrow=classic;html=1;fontSize=13;fontColor=#666666;entryX=0;entryY=0.5;entryDx=0;entryDy=0;curved=1;exitX=0.5;exitY=1;exitDx=0;exitDy=0;dashed=1;dashPattern=1 1;" parent="1" edge="1">
          <mxGeometry width="50" height="50" relative="1" as="geometry">
            <mxPoint x="432" y="630.5" as="sourcePoint" />
            <mxPoint x="392" y="773.5" as="targetPoint" />
            <Array as="points">
              <mxPoint x="358" y="691.5" />
            </Array>
          </mxGeometry>
        </mxCell>
        <mxCell id="PUCx9wWwO43e30y1EaRS-58" value="create" style="edgeLabel;html=1;align=center;verticalAlign=middle;resizable=0;points=[];fontSize=13;fontColor=#666666;" parent="PUCx9wWwO43e30y1EaRS-57" vertex="1" connectable="0">
          <mxGeometry x="-0.2747" y="13" relative="1" as="geometry">
            <mxPoint x="-1.46" y="23.26" as="offset" />
          </mxGeometry>
        </mxCell>
        <mxCell id="PUCx9wWwO43e30y1EaRS-59" value="" style="endArrow=classic;html=1;fontSize=13;fontColor=#666666;entryX=0;entryY=0.5;entryDx=0;entryDy=0;curved=1;exitX=0.5;exitY=1;exitDx=0;exitDy=0;dashed=1;dashPattern=1 1;" parent="1" edge="1">
          <mxGeometry width="50" height="50" relative="1" as="geometry">
            <mxPoint x="711" y="630.5" as="sourcePoint" />
            <mxPoint x="671" y="773.5" as="targetPoint" />
            <Array as="points">
              <mxPoint x="637" y="691.5" />
            </Array>
          </mxGeometry>
        </mxCell>
        <mxCell id="PUCx9wWwO43e30y1EaRS-60" value="create" style="edgeLabel;html=1;align=center;verticalAlign=middle;resizable=0;points=[];fontSize=13;fontColor=#666666;" parent="PUCx9wWwO43e30y1EaRS-59" vertex="1" connectable="0">
          <mxGeometry x="-0.2747" y="13" relative="1" as="geometry">
            <mxPoint x="-1.46" y="23.26" as="offset" />
          </mxGeometry>
        </mxCell>
        <mxCell id="PUCx9wWwO43e30y1EaRS-61" value="spring-boot镜像" style="whiteSpace=wrap;html=1;aspect=fixed;fillColor=#fff2cc;strokeColor=#d6b656;" parent="1" vertex="1">
          <mxGeometry x="671" y="828" width="80" height="80" as="geometry" />
        </mxCell>
        <mxCell id="PUCx9wWwO43e30y1EaRS-62" value="" style="endArrow=classic;html=1;fontSize=13;fontColor=#666666;entryX=0;entryY=0.5;entryDx=0;entryDy=0;curved=1;exitX=0.5;exitY=1;exitDx=0;exitDy=0;dashed=1;dashPattern=1 1;" parent="1" edge="1">
          <mxGeometry width="50" height="50" relative="1" as="geometry">
            <mxPoint x="712" y="630" as="sourcePoint" />
            <mxPoint x="672" y="868" as="targetPoint" />
            <Array as="points">
              <mxPoint x="648" y="671" />
              <mxPoint x="637" y="779" />
            </Array>
          </mxGeometry>
        </mxCell>
        <mxCell id="PUCx9wWwO43e30y1EaRS-63" value="create" style="edgeLabel;html=1;align=center;verticalAlign=middle;resizable=0;points=[];fontSize=13;fontColor=#666666;" parent="PUCx9wWwO43e30y1EaRS-62" vertex="1" connectable="0">
          <mxGeometry x="0.1496" y="2" relative="1" as="geometry">
            <mxPoint as="offset" />
          </mxGeometry>
        </mxCell>
        <mxCell id="g4EH2bi1lTmhtuftQM1r-1" value="" style="rounded=0;whiteSpace=wrap;html=1;" vertex="1" parent="1">
          <mxGeometry x="137" y="1090" width="265" height="290" as="geometry" />
        </mxCell>
        <mxCell id="g4EH2bi1lTmhtuftQM1r-2" value="" style="rounded=0;whiteSpace=wrap;html=1;" vertex="1" parent="1">
          <mxGeometry x="402" y="1170" width="60" height="210" as="geometry" />
        </mxCell>
        <mxCell id="g4EH2bi1lTmhtuftQM1r-3" value="" style="endArrow=none;html=1;exitX=1;exitY=0;exitDx=0;exitDy=0;" edge="1" parent="1" source="g4EH2bi1lTmhtuftQM1r-1">
          <mxGeometry width="50" height="50" relative="1" as="geometry">
            <mxPoint x="443" y="1150" as="sourcePoint" />
            <mxPoint x="464" y="1090" as="targetPoint" />
          </mxGeometry>
        </mxCell>
        <mxCell id="g4EH2bi1lTmhtuftQM1r-7" value="床" style="rounded=0;whiteSpace=wrap;html=1;fillColor=#f5f5f5;strokeColor=#666666;fontColor=#333333;glass=0;shadow=0;" vertex="1" parent="1">
          <mxGeometry x="137" y="1190" width="210" height="190" as="geometry" />
        </mxCell>
        <mxCell id="g4EH2bi1lTmhtuftQM1r-8" value="" style="rounded=0;whiteSpace=wrap;html=1;fillColor=#d5e8d4;strokeColor=#82b366;" vertex="1" parent="1">
          <mxGeometry x="137.5" y="1120" width="209.5" height="70" as="geometry" />
        </mxCell>
        <mxCell id="g4EH2bi1lTmhtuftQM1r-15" value="用户" style="shape=umlActor;verticalLabelPosition=bottom;verticalAlign=top;html=1;outlineConnect=0;rounded=0;shadow=0;glass=0;" vertex="1" parent="1">
          <mxGeometry x="-850" y="1785" width="30" height="60" as="geometry" />
        </mxCell>
        <mxCell id="g4EH2bi1lTmhtuftQM1r-16" value="用户" style="shape=umlActor;verticalLabelPosition=bottom;verticalAlign=top;html=1;outlineConnect=0;rounded=0;shadow=0;glass=0;" vertex="1" parent="1">
          <mxGeometry x="-847" y="1917" width="30" height="60" as="geometry" />
        </mxCell>
        <mxCell id="g4EH2bi1lTmhtuftQM1r-17" value="用户" style="shape=umlActor;verticalLabelPosition=bottom;verticalAlign=top;html=1;outlineConnect=0;rounded=0;shadow=0;glass=0;" vertex="1" parent="1">
          <mxGeometry x="-847" y="2052" width="30" height="60" as="geometry" />
        </mxCell>
        <mxCell id="g4EH2bi1lTmhtuftQM1r-18" value="" style="rounded=0;whiteSpace=wrap;html=1;shadow=0;glass=0;" vertex="1" parent="1">
          <mxGeometry x="-630" y="1771" width="120" height="352" as="geometry" />
        </mxCell>
        <mxCell id="g4EH2bi1lTmhtuftQM1r-19" value="nginx" style="text;html=1;strokeColor=none;fillColor=none;align=center;verticalAlign=middle;whiteSpace=wrap;rounded=0;shadow=0;glass=0;" vertex="1" parent="1">
          <mxGeometry x="-596" y="1751" width="40" height="20" as="geometry" />
        </mxCell>
        <mxCell id="g4EH2bi1lTmhtuftQM1r-20" value="80端口" style="rounded=1;whiteSpace=wrap;html=1;shadow=0;glass=0;fillColor=#ffe6cc;strokeColor=#d79b00;" vertex="1" parent="1">
          <mxGeometry x="-614" y="1804" width="88" height="60" as="geometry" />
        </mxCell>
        <mxCell id="g4EH2bi1lTmhtuftQM1r-21" value="8081端口" style="rounded=1;whiteSpace=wrap;html=1;shadow=0;glass=0;fillColor=#f8cecc;strokeColor=#b85450;" vertex="1" parent="1">
          <mxGeometry x="-614" y="1920" width="88" height="60" as="geometry" />
        </mxCell>
        <mxCell id="g4EH2bi1lTmhtuftQM1r-22" value="8083端口" style="rounded=1;whiteSpace=wrap;html=1;shadow=0;glass=0;fillColor=#e1d5e7;strokeColor=#9673a6;" vertex="1" parent="1">
          <mxGeometry x="-614" y="2035" width="88" height="60" as="geometry" />
        </mxCell>
        <mxCell id="g4EH2bi1lTmhtuftQM1r-23" value="" style="rounded=0;whiteSpace=wrap;html=1;shadow=0;glass=0;" vertex="1" parent="1">
          <mxGeometry x="-362" y="1771" width="391" height="79" as="geometry" />
        </mxCell>
        <mxCell id="g4EH2bi1lTmhtuftQM1r-24" value="支付服务" style="rounded=0;whiteSpace=wrap;html=1;shadow=0;glass=0;fillColor=#ffe6cc;strokeColor=#d79b00;" vertex="1" parent="1">
          <mxGeometry x="-352" y="1781" width="91" height="60" as="geometry" />
        </mxCell>
        <mxCell id="g4EH2bi1lTmhtuftQM1r-26" value="缴费服务" style="rounded=0;whiteSpace=wrap;html=1;shadow=0;glass=0;fillColor=#f8cecc;strokeColor=#b85450;" vertex="1" parent="1">
          <mxGeometry x="-211" y="1780.5" width="91" height="60" as="geometry" />
        </mxCell>
        <mxCell id="g4EH2bi1lTmhtuftQM1r-27" value="收银台" style="rounded=0;whiteSpace=wrap;html=1;shadow=0;glass=0;fillColor=#e1d5e7;strokeColor=#9673a6;" vertex="1" parent="1">
          <mxGeometry x="-70" y="1781" width="91" height="60" as="geometry" />
        </mxCell>
        <mxCell id="g4EH2bi1lTmhtuftQM1r-28" value="" style="rounded=0;whiteSpace=wrap;html=1;shadow=0;glass=0;" vertex="1" parent="1">
          <mxGeometry x="-362" y="2044" width="391" height="79" as="geometry" />
        </mxCell>
        <mxCell id="g4EH2bi1lTmhtuftQM1r-29" value="支付服务" style="rounded=0;whiteSpace=wrap;html=1;shadow=0;glass=0;fillColor=#ffe6cc;strokeColor=#d79b00;" vertex="1" parent="1">
          <mxGeometry x="-352" y="2054" width="91" height="60" as="geometry" />
        </mxCell>
        <mxCell id="g4EH2bi1lTmhtuftQM1r-30" value="缴费服务" style="rounded=0;whiteSpace=wrap;html=1;shadow=0;glass=0;fillColor=#f8cecc;strokeColor=#b85450;" vertex="1" parent="1">
          <mxGeometry x="-211" y="2053.5" width="91" height="60" as="geometry" />
        </mxCell>
        <mxCell id="g4EH2bi1lTmhtuftQM1r-31" value="收银台" style="rounded=0;whiteSpace=wrap;html=1;shadow=0;glass=0;fillColor=#e1d5e7;strokeColor=#9673a6;" vertex="1" parent="1">
          <mxGeometry x="-70" y="2054" width="91" height="60" as="geometry" />
        </mxCell>
        <mxCell id="g4EH2bi1lTmhtuftQM1r-34" value="" style="endArrow=classic;html=1;entryX=0;entryY=0.5;entryDx=0;entryDy=0;" edge="1" parent="1" target="g4EH2bi1lTmhtuftQM1r-18">
          <mxGeometry width="50" height="50" relative="1" as="geometry">
            <mxPoint x="-820" y="1804" as="sourcePoint" />
            <mxPoint x="-770" y="1754" as="targetPoint" />
          </mxGeometry>
        </mxCell>
        <mxCell id="g4EH2bi1lTmhtuftQM1r-36" value="" style="endArrow=classic;html=1;exitX=1;exitY=0.3333333333333333;exitDx=0;exitDy=0;exitPerimeter=0;" edge="1" parent="1" source="g4EH2bi1lTmhtuftQM1r-16">
          <mxGeometry width="50" height="50" relative="1" as="geometry">
            <mxPoint x="-810" y="1814" as="sourcePoint" />
            <mxPoint x="-632" y="1947" as="targetPoint" />
          </mxGeometry>
        </mxCell>
        <mxCell id="g4EH2bi1lTmhtuftQM1r-37" value="" style="endArrow=classic;html=1;" edge="1" parent="1">
          <mxGeometry width="50" height="50" relative="1" as="geometry">
            <mxPoint x="-815" y="2071" as="sourcePoint" />
            <mxPoint x="-632" y="1948" as="targetPoint" />
          </mxGeometry>
        </mxCell>
        <mxCell id="g4EH2bi1lTmhtuftQM1r-38" value="" style="endArrow=classic;html=1;entryX=0.5;entryY=1;entryDx=0;entryDy=0;exitX=1;exitY=0.5;exitDx=0;exitDy=0;edgeStyle=orthogonalEdgeStyle;fillColor=#ffe6cc;strokeColor=#d79b00;dashed=1;dashPattern=1 1;" edge="1" parent="1" source="g4EH2bi1lTmhtuftQM1r-20" target="g4EH2bi1lTmhtuftQM1r-24">
          <mxGeometry width="50" height="50" relative="1" as="geometry">
            <mxPoint x="-790" y="1834" as="sourcePoint" />
            <mxPoint x="-600" y="1977" as="targetPoint" />
            <Array as="points">
              <mxPoint x="-481" y="1834" />
              <mxPoint x="-481" y="1880" />
              <mxPoint x="-306" y="1880" />
            </Array>
          </mxGeometry>
        </mxCell>
        <mxCell id="g4EH2bi1lTmhtuftQM1r-40" value="50%" style="edgeLabel;html=1;align=center;verticalAlign=middle;resizable=0;points=[];" vertex="1" connectable="0" parent="g4EH2bi1lTmhtuftQM1r-38">
          <mxGeometry x="0.0707" y="5" relative="1" as="geometry">
            <mxPoint x="-38" as="offset" />
          </mxGeometry>
        </mxCell>
        <mxCell id="g4EH2bi1lTmhtuftQM1r-39" value="" style="endArrow=classic;html=1;entryX=0;entryY=0.5;entryDx=0;entryDy=0;exitX=1;exitY=0.5;exitDx=0;exitDy=0;edgeStyle=orthogonalEdgeStyle;fillColor=#ffe6cc;strokeColor=#d79b00;dashed=1;dashPattern=1 1;" edge="1" parent="1" target="g4EH2bi1lTmhtuftQM1r-29">
          <mxGeometry width="50" height="50" relative="1" as="geometry">
            <mxPoint x="-526" y="1834" as="sourcePoint" />
            <mxPoint x="-306.5" y="1841" as="targetPoint" />
            <Array as="points">
              <mxPoint x="-481" y="1834" />
              <mxPoint x="-481" y="2084" />
            </Array>
          </mxGeometry>
        </mxCell>
        <mxCell id="g4EH2bi1lTmhtuftQM1r-41" value="50%" style="edgeLabel;html=1;align=center;verticalAlign=middle;resizable=0;points=[];" vertex="1" connectable="0" parent="g4EH2bi1lTmhtuftQM1r-39">
          <mxGeometry x="-0.262" y="3" relative="1" as="geometry">
            <mxPoint x="311.5" y="-28" as="offset" />
          </mxGeometry>
        </mxCell>
        <mxCell id="g4EH2bi1lTmhtuftQM1r-42" value="" style="endArrow=classic;html=1;entryX=0.5;entryY=1;entryDx=0;entryDy=0;exitX=1;exitY=0.5;exitDx=0;exitDy=0;edgeStyle=orthogonalEdgeStyle;fillColor=#f8cecc;strokeColor=#b85450;dashed=1;dashPattern=1 1;" edge="1" parent="1" source="g4EH2bi1lTmhtuftQM1r-21" target="g4EH2bi1lTmhtuftQM1r-26">
          <mxGeometry width="50" height="50" relative="1" as="geometry">
            <mxPoint x="-516" y="1844" as="sourcePoint" />
            <mxPoint x="-296.5" y="1851" as="targetPoint" />
            <Array as="points">
              <mxPoint x="-165" y="1950" />
            </Array>
          </mxGeometry>
        </mxCell>
        <mxCell id="g4EH2bi1lTmhtuftQM1r-43" value="50%" style="edgeLabel;html=1;align=center;verticalAlign=middle;resizable=0;points=[];" vertex="1" connectable="0" parent="g4EH2bi1lTmhtuftQM1r-42">
          <mxGeometry x="0.0707" y="5" relative="1" as="geometry">
            <mxPoint x="-211" y="-32" as="offset" />
          </mxGeometry>
        </mxCell>
        <mxCell id="g4EH2bi1lTmhtuftQM1r-44" value="" style="endArrow=classic;html=1;exitX=1;exitY=0.5;exitDx=0;exitDy=0;edgeStyle=orthogonalEdgeStyle;fillColor=#f8cecc;strokeColor=#b85450;dashed=1;dashPattern=1 1;" edge="1" parent="1" target="g4EH2bi1lTmhtuftQM1r-30">
          <mxGeometry width="50" height="50" relative="1" as="geometry">
            <mxPoint x="-526" y="1950" as="sourcePoint" />
            <mxPoint x="-165.5" y="1840.5" as="targetPoint" />
            <Array as="points">
              <mxPoint x="-165" y="1950" />
            </Array>
          </mxGeometry>
        </mxCell>
        <mxCell id="g4EH2bi1lTmhtuftQM1r-45" value="50%" style="edgeLabel;html=1;align=center;verticalAlign=middle;resizable=0;points=[];" vertex="1" connectable="0" parent="g4EH2bi1lTmhtuftQM1r-44">
          <mxGeometry x="0.0707" y="5" relative="1" as="geometry">
            <mxPoint x="115" y="28" as="offset" />
          </mxGeometry>
        </mxCell>
        <mxCell id="g4EH2bi1lTmhtuftQM1r-48" value="" style="endArrow=classic;html=1;entryX=0.5;entryY=1;entryDx=0;entryDy=0;exitX=1;exitY=0.5;exitDx=0;exitDy=0;edgeStyle=orthogonalEdgeStyle;fillColor=#e1d5e7;strokeColor=#9673a6;dashed=1;dashPattern=1 1;" edge="1" parent="1" source="g4EH2bi1lTmhtuftQM1r-22" target="g4EH2bi1lTmhtuftQM1r-27">
          <mxGeometry width="50" height="50" relative="1" as="geometry">
            <mxPoint x="-516" y="1844" as="sourcePoint" />
            <mxPoint x="-342" y="2094" as="targetPoint" />
            <Array as="points">
              <mxPoint x="-393" y="2065" />
              <mxPoint x="-393" y="1994" />
              <mxPoint x="-24" y="1994" />
            </Array>
          </mxGeometry>
        </mxCell>
        <mxCell id="g4EH2bi1lTmhtuftQM1r-49" value="50%" style="edgeLabel;html=1;align=center;verticalAlign=middle;resizable=0;points=[];" vertex="1" connectable="0" parent="g4EH2bi1lTmhtuftQM1r-48">
          <mxGeometry x="-0.262" y="3" relative="1" as="geometry">
            <mxPoint x="308" y="-29" as="offset" />
          </mxGeometry>
        </mxCell>
        <mxCell id="g4EH2bi1lTmhtuftQM1r-50" value="" style="endArrow=classic;html=1;exitX=1;exitY=0.5;exitDx=0;exitDy=0;edgeStyle=orthogonalEdgeStyle;fillColor=#e1d5e7;strokeColor=#9673a6;dashed=1;dashPattern=1 1;" edge="1" parent="1" target="g4EH2bi1lTmhtuftQM1r-31">
          <mxGeometry width="50" height="50" relative="1" as="geometry">
            <mxPoint x="-526" y="2065" as="sourcePoint" />
            <mxPoint x="-24.5" y="1841" as="targetPoint" />
            <Array as="points">
              <mxPoint x="-393" y="2065" />
              <mxPoint x="-393" y="1994" />
              <mxPoint x="-24" y="1994" />
            </Array>
          </mxGeometry>
        </mxCell>
        <mxCell id="g4EH2bi1lTmhtuftQM1r-51" value="50%" style="edgeLabel;html=1;align=center;verticalAlign=middle;resizable=0;points=[];" vertex="1" connectable="0" parent="g4EH2bi1lTmhtuftQM1r-50">
          <mxGeometry x="-0.262" y="3" relative="1" as="geometry">
            <mxPoint x="338.5" y="32" as="offset" />
          </mxGeometry>
        </mxCell>
        <mxCell id="g4EH2bi1lTmhtuftQM1r-52" value="业务01" style="text;html=1;strokeColor=none;fillColor=none;align=center;verticalAlign=middle;whiteSpace=wrap;rounded=0;shadow=0;glass=0;" vertex="1" parent="1">
          <mxGeometry x="-189" y="1751" width="40" height="20" as="geometry" />
        </mxCell>
        <mxCell id="g4EH2bi1lTmhtuftQM1r-53" value="业务02" style="text;html=1;strokeColor=none;fillColor=none;align=center;verticalAlign=middle;whiteSpace=wrap;rounded=0;shadow=0;glass=0;" vertex="1" parent="1">
          <mxGeometry x="-189" y="2123" width="40" height="20" as="geometry" />
        </mxCell>
      </root>
    </mxGraphModel>
  </diagram>
</mxfile>
